<?xml version="1.0" encoding="UTF-8"?><svg id="Layer_1" xmlns="http://www.w3.org/2000/svg" viewBox="0 0 120 120"><defs><style>.cls-1{fill:#231f20;}.cls-1,.cls-2{stroke-width:0px;}.cls-2{fill:#fff;}</style></defs><rect class="cls-2" x="2" y="2" width="116" height="116"/><path class="cls-1" d="M116,4v112H4V4h112M120,0H0v120h120V0h0Z"/><path class="cls-1" d="M60.9,44.28c-2.16-10.08-7.56-14.64-16.68-14.64-11.04,0-17.04,7.2-17.04,25.08v10.56c0,17.64,6,25.08,17.04,25.08,9.48,0,14.52-4.56,16.68-14.64h13.32c-2.76,18.6-13.56,26.76-30,26.76-18.48,0-30.96-11.16-30.96-37.2v-10.56c0-26.04,12.48-37.2,30.96-37.2,16.44,0,27.36,8.76,30.12,26.76h-13.44Z"/><path class="cls-1" d="M84.78,18.6h12.84v60.96c0,6.48,1.2,10.56,9.12,10.56v11.28c-15.6,0-21.96-5.04-21.96-18.84V18.6Z"/></svg>